<?xml version="1.0" encoding="UTF-8" standalone="no"?>
<!-- Created with Inkscape (http://www.inkscape.org/) -->

<svg
   xmlns:dc="http://purl.org/dc/elements/1.1/"
   xmlns:cc="http://creativecommons.org/ns#"
   xmlns:rdf="http://www.w3.org/1999/02/22-rdf-syntax-ns#"
   xmlns:svg="http://www.w3.org/2000/svg"
   xmlns="http://www.w3.org/2000/svg"
   xmlns:xlink="http://www.w3.org/1999/xlink"
   xmlns:sodipodi="http://sodipodi.sourceforge.net/DTD/sodipodi-0.dtd"
   xmlns:inkscape="http://www.inkscape.org/namespaces/inkscape"
   width="210mm"
   height="297mm"
   id="svg2"
   version="1.1"
   inkscape:version="0.48.2 r9819"
   sodipodi:docname="c48_5.svg">
  <defs
     id="defs4">
    <linearGradient
       id="linearGradient3827">
      <stop
         style="stop-color:#70ba5b;stop-opacity:0.627451;"
         offset="0"
         id="stop3829" />
      <stop
         style="stop-color:#70ba5b;stop-opacity:0.75294119;"
         offset="1"
         id="stop3831" />
    </linearGradient>
    <linearGradient
       id="linearGradient3817">
      <stop
         style="stop-color:#d40000;stop-opacity:1;"
         offset="0"
         id="stop3819" />
      <stop
         id="stop3825"
         offset="1"
         style="stop-color:#d40000;stop-opacity:0.627451;" />
    </linearGradient>
    <linearGradient
       inkscape:collect="always"
       xlink:href="#linearGradient3817"
       id="linearGradient3823"
       x1="147"
       y1="202.36218"
       x2="254"
       y2="202.36218"
       gradientUnits="userSpaceOnUse" />
    <linearGradient
       inkscape:collect="always"
       xlink:href="#linearGradient3827"
       id="linearGradient5279"
       x1="204.64285"
       y1="196.6479"
       x2="319.64285"
       y2="196.6479"
       gradientUnits="userSpaceOnUse" />
    <linearGradient
       inkscape:collect="always"
       xlink:href="#linearGradient3827"
       id="linearGradient5317"
       x1="243"
       y1="202.36218"
       x2="363"
       y2="202.36218"
       gradientUnits="userSpaceOnUse" />
  </defs>
  <sodipodi:namedview
     id="base"
     pagecolor="#ffffff"
     bordercolor="#666666"
     borderopacity="1.0"
     inkscape:pageopacity="0.0"
     inkscape:pageshadow="2"
     inkscape:zoom="1"
     inkscape:cx="397.08919"
     inkscape:cy="761.373"
     inkscape:document-units="px"
     inkscape:current-layer="layer1"
     showgrid="false"
     inkscape:window-width="1137"
     inkscape:window-height="693"
     inkscape:window-x="156"
     inkscape:window-y="152"
     inkscape:window-maximized="0" />
  <metadata
     id="metadata7">
    <rdf:RDF>
      <cc:Work
         rdf:about="">
        <dc:format>image/svg+xml</dc:format>
        <dc:type
           rdf:resource="http://purl.org/dc/dcmitype/StillImage" />
        <dc:title></dc:title>
      </cc:Work>
    </rdf:RDF>
  </metadata>
  <g
     inkscape:label="レイヤー 1"
     inkscape:groupmode="layer"
     id="layer1">
    <flowRoot
       xml:space="preserve"
       id="flowRoot2985"
       style="font-size:10px;font-style:normal;font-weight:normal;line-height:125%;letter-spacing:0px;word-spacing:0px;fill:#000000;fill-opacity:1;stroke:none;font-family:Sans"
       transform="translate(215.49902,26.507386)"
       inkscape:export-filename="D:\work\path3833-9-1.png"
       inkscape:export-xdpi="300"
       inkscape:export-ydpi="300"><flowRegion
         id="flowRegion2987"><rect
           id="rect2989"
           width="295.71429"
           height="132.85713"
           x="157.14285"
           y="118.07647" /></flowRegion><flowPara
         id="flowPara2991"
         style="font-size:48px;font-style:normal;font-variant:normal;font-weight:normal;font-stretch:normal;fill:#d40000;font-family:'M+ 2p black';-inkscape-font-specification:'M+ 2p black'">Code</flowPara></flowRoot>    <flowRoot
       xml:space="preserve"
       id="flowRoot2993"
       style="fill:black;stroke:none;stroke-opacity:1;stroke-width:1px;stroke-linejoin:miter;stroke-linecap:butt;fill-opacity:1;font-family:Sans;font-style:normal;font-weight:normal;font-size:10px;line-height:125%;letter-spacing:0px;word-spacing:0px"><flowRegion
         id="flowRegion2995"><rect
           id="rect2997"
           width="77.14286"
           height="17.142857"
           x="338.57144"
           y="255.21933" /></flowRegion><flowPara
         id="flowPara2999" /></flowRoot>    <flowRoot
       transform="translate(346.38173,26.507386)"
       xml:space="preserve"
       id="flowRoot2985-1"
       style="font-size:10px;font-style:normal;font-weight:normal;line-height:125%;letter-spacing:0px;word-spacing:0px;fill:#000000;fill-opacity:1;stroke:none;font-family:Sans"
       inkscape:export-filename="D:\work\path3833-9-1.png"
       inkscape:export-xdpi="300"
       inkscape:export-ydpi="300"><flowRegion
         id="flowRegion2987-7"><rect
           id="rect2989-4"
           width="295.71429"
           height="132.85713"
           x="157.14285"
           y="118.07647" /></flowRegion><flowPara
         id="flowPara2991-0"
         style="font-size:48px;font-style:normal;font-variant:normal;font-weight:normal;font-stretch:normal;font-family:'M+ 2p regular';-inkscape-font-specification:'M+ 2p regular'">for</flowPara></flowRoot>    <flowRoot
       xml:space="preserve"
       id="flowRoot3028"
       style="fill:black;stroke:none;stroke-opacity:1;stroke-width:1px;stroke-linejoin:miter;stroke-linecap:butt;fill-opacity:1;font-family:Sans;font-style:normal;font-weight:normal;font-size:10px;line-height:125%;letter-spacing:0px;word-spacing:0px"><flowRegion
         id="flowRegion3030"><rect
           id="rect3032"
           width="70"
           height="12.857142"
           x="371.42856"
           y="163.79076" /></flowRegion><flowPara
         id="flowPara3034" /></flowRoot>    <flowRoot
       transform="translate(213.83984,75.447327)"
       xml:space="preserve"
       id="flowRoot2985-9"
       style="font-size:10px;font-style:normal;font-weight:normal;line-height:125%;letter-spacing:0px;word-spacing:0px;fill:#70ba5b;fill-opacity:1;stroke:#737373;stroke-opacity:0.79562044;font-family:Sans"
       inkscape:export-filename="D:\work\path3833-9-1.png"
       inkscape:export-xdpi="300"
       inkscape:export-ydpi="300"><flowRegion
         id="flowRegion2987-4"><rect
           id="rect2989-8"
           width="295.71429"
           height="132.85713"
           x="157.14285"
           y="118.07647"
           style="fill:#70ba5b;fill-opacity:1;stroke:#737373;stroke-opacity:0.79562044" /></flowRegion><flowPara
         id="flowPara2991-8"
         style="font-size:48px;font-style:normal;font-variant:normal;font-weight:normal;font-stretch:normal;fill:#70ba5b;fill-opacity:1;stroke:#737373;stroke-opacity:0.79562044;font-family:'M+ 2p black';-inkscape-font-specification:'M+ 2p black'">Hachioji</flowPara></flowRoot>    <path
       sodipodi:type="arc"
       style="fill:none;stroke:url(#linearGradient5279);stroke-width:25;stroke-miterlimit:4;stroke-opacity:1;stroke-dasharray:none"
       id="path3833"
       sodipodi:cx="262.14285"
       sodipodi:cy="196.6479"
       sodipodi:rx="45"
       sodipodi:ry="44.285713"
       d="m 307.14285,196.6479 a 45,44.285713 0 1 1 -90,0 45,44.285713 0 1 1 90,0 z"
       transform="matrix(1.0673824,0,0,0.85879184,-59.806669,209.48257)"
       inkscape:export-xdpi="300"
       inkscape:export-ydpi="300" />
    <path
       sodipodi:type="arc"
       style="fill:#000000;fill-opacity:1;stroke:#70ba5b;stroke-width:0;stroke-miterlimit:4;stroke-opacity:1;stroke-dasharray:none"
       id="path3833-9-8"
       sodipodi:cx="262.14285"
       sodipodi:cy="196.6479"
       sodipodi:rx="45"
       sodipodi:ry="44.285713"
       d="m 307.14285,196.6479 a 45,44.285713 0 1 1 -90,0 45,44.285713 0 1 1 90,0 z"
       transform="matrix(1.3333333,0,0,1.1290323,-344.5238,321.34035)"
       inkscape:export-xdpi="300"
       inkscape:export-ydpi="300" />
    <path
       sodipodi:type="arc"
       style="fill:#ffffff;fill-opacity:1;stroke:#70ba5b;stroke-width:0;stroke-miterlimit:4;stroke-opacity:1;stroke-dasharray:none"
       id="path3833-9-4-8"
       sodipodi:cx="262.14285"
       sodipodi:cy="196.6479"
       sodipodi:rx="45"
       sodipodi:ry="44.285713"
       d="m 307.14285,196.6479 a 45,44.285713 0 1 1 -90,0 45,44.285713 0 1 1 90,0 z"
       transform="matrix(0.8,0,0,0.58709679,-204.71427,427.91082)"
       inkscape:export-xdpi="300"
       inkscape:export-ydpi="300" />
    <path
       style="fill:url(#linearGradient3823);fill-opacity:1;stroke:#70ba5b;stroke-width:0;stroke-miterlimit:4;stroke-opacity:1;stroke-dasharray:none"
       d="m 207,152.36218 c -33.13708,0 -60,22.38576 -60,50 0,27.61424 26.86292,50 60,50 19.03785,0 36.00827,-7.41328 47,-18.9375 -6.45855,-6.77143 -10.83441,-14.97063 -12.375,-23.9375 -4.29217,10.89223 -18.16683,18.875 -34.625,18.875 -19.88225,0 -36,-11.6406 -36,-26 0,-14.3594 16.11775,-26 36,-26 16.4516,0 30.32689,7.95819 34.625,18.84375 1.54059,-8.96687 5.91645,-17.16607 12.375,-23.9375 -10.99173,-11.52422 -27.96215,-18.90625 -47,-18.90625 z"
       id="path3833-9"
       inkscape:connector-curvature="0"
       inkscape:export-xdpi="300"
       inkscape:export-ydpi="300" />
    <path
       style="fill:#d40000;fill-opacity:1;stroke:#70ba5b;stroke-width:0;stroke-miterlimit:4;stroke-opacity:1;stroke-dasharray:none"
       d="m 39.5,181.36218 c -33.13708,0 -60,22.38576 -60,50 0,27.61424 26.86292,50 60,50 16.86441,0 32.09965,-5.82167 43,-15.15625 -6.33194,-5.42239 -11.19082,-12.04049 -14.0625,-19.40625 -6.55856,6.39344 -17.07417,10.5625 -28.9375,10.5625 -19.88225,0 -36,-11.6406 -36,-26 0,-14.3594 16.11775,-26 36,-26 11.86333,0 22.37894,4.13781 28.9375,10.53125 2.87168,-7.36576 7.73056,-13.98386 14.0625,-19.40625 -10.90035,-9.33458 -26.13559,-15.125 -43,-15.125 z"
       id="path3833-9-2-5"
       inkscape:connector-curvature="0" />
    <path
       style="fill:url(#linearGradient5317);fill-opacity:1.0;stroke:none"
       d="m 303,152.36218 c -33.13708,0 -60,22.38576 -60,50 0,27.61424 26.86292,50 60,50 33.13708,0 60,-22.38576 60,-50 0,-27.61424 -26.86292,-50 -60,-50 z m 0,24 c 19.88225,0 36,11.6406 36,26 0,14.3594 -16.11775,26 -36,26 -19.88225,0 -36,-11.6406 -36,-26 0,-14.3594 16.11775,-26 36,-26 z"
       id="path3833-9-1"
       inkscape:connector-curvature="0"
       inkscape:export-xdpi="300"
       inkscape:export-ydpi="300" />
    <path
       sodipodi:type="arc"
       style="fill:#800080;fill-opacity:1;stroke:#70ba5b;stroke-width:0;stroke-miterlimit:4;stroke-opacity:1;stroke-dasharray:none"
       id="path3833-9-8-4-5-7"
       sodipodi:cx="262.14285"
       sodipodi:cy="196.6479"
       sodipodi:rx="45"
       sodipodi:ry="44.285713"
       d="m 307.14285,196.6479 a 45,44.285713 0 1 1 -90,0 45,44.285713 0 1 1 90,0 z"
       transform="matrix(1.3333333,0,0,1.1290323,-285.5238,195.34035)"
       inkscape:export-xdpi="300"
       inkscape:export-ydpi="300" />
  </g>
</svg>
